# xmcd
#
# Track frame offsets:
#  150
#  19966
#  60362
#  83524
#  97200
#  128702
#  156556
#  193046
#  215783
#
# Disc length: 3605 seconds
#
# Revision: 0
# Processed by: cddbd v1.5.2PL0 Copyright (c) Steve Scherf et al.
# Submitted via: Collectorz.com_Music_Collector 6.11
#
DISCID=7d0e1309
DTITLE=Tolo Marton - Acid Blues
DYEAR=2003
DGENRE=Blues
TTITLE0=Barry's Riff
TTITLE1=The Hippie God
TTITLE2=Puni
TTITLE3=Pink Noise
TTITLE4=The Blues Is Acid
TTITLE5=Soul Circle
TTITLE6=Acid Road
TTITLE7=Jimi Dimmi
TTITLE8=Silver Strings
EXTD=
EXTT0=
EXTT1=
EXTT2=
EXTT3=
EXTT4=
EXTT5=
EXTT6=
EXTT7=
EXTT8=
PLAYORDER=
